<?xml version="1.0" encoding="utf-8"?>
<!-- Generator: Adobe Illustrator 22.1.0, SVG Export Plug-In . SVG Version: 6.00 Build 0)  -->
<svg version="1.1" id="Capa_1" xmlns="http://www.w3.org/2000/svg" xmlns:xlink="http://www.w3.org/1999/xlink" x="0px" y="0px"
	 viewBox="0 0 576.9 225.6" xml:space="preserve">
<g>
	<path fill="currentColor" d="M0,87.3c0,43.7,33.4,78.3,81.2,78.3c44.1,0,81.6-31.6,81.6-80.1c0-43.7-33.4-78.3-81.2-78.3C37.5,7.2,0,38.8,0,87.3
		 M130.6,86.7c0,38.8-19.5,69.6-48.9,69.6c-28.7,0-49.4-29.4-49.4-70c0-38.8,19.5-69.6,48.9-69.6C109.9,16.7,130.6,46.1,130.6,86.7
		 M173.6,198.2c0,14.5,13.8,27.4,42.1,27.4c31.8,0,52-20.6,52-44.3c0-18.9-15.1-29.2-36-26.6l-36.6,4.6c-12.1,1.5-15.8-2.4-15.8-8.6
		c0-7.2,7.9-12.9,35.3-12.9h0.4c20,0,43.5-12.1,43.5-38.2c0-8.3-3.1-16-8.8-22.2c-2-3.9-2.6-7.9-2.6-13.6
		c0-19.3,13.2-30.3,26.8-30.3c5.7,0,7.5,0.9,7.5,4.8c0,1.1-0.2,2-0.2,3.3c0,6.8,5.7,13.2,13.8,13.2c8.3,0,13.6-6.6,13.6-13.8
		c0-11-9.9-19.1-28.1-19.1c-25,0-44.3,16.2-44.3,41c0,2,0.2,3.5,0.2,5c-5.7-2.4-12.7-4-20.4-4c-19.8,0-43.5,12.1-43.5,38.2
		c0,12.1,6.8,23.3,18.7,29.8c-17.6,2.4-27.7,11.8-27.7,26.6c0,14.9,11.9,25.7,34,23l32-4c16-2,21.3,3.7,21.3,12.1
		c0,14.5-13.6,26.1-35.3,26.1c-17.3,0-23.7-6.1-23.7-14.9c0-1.3,0.2-3.1,0.2-4.4c0-5.3-3.3-9-8.6-9.2
		C177.3,187.4,173.6,191.8,173.6,198.2 M233.9,101.4c0,15.4-7,28.5-18,28.5c-10.5,0-18.9-11.6-18.9-29.4c0-15.1,7-28.5,18.2-28.5
		C225.6,72,233.9,83.6,233.9,101.4 M324.4,163.3v-7.7l-11.4-0.2c-2.9,0-4.8-1.8-4.8-4.2V63.6l-38.6,9.9v4.6l11,3.5
		c1.8,0.7,2.4,2,2.4,3.7v66.5c0,2-1.1,3.1-2.6,3.3l-9,1.1v7H324.4z M376.6,163.3v-7l-10.8-1.1c-1.5-0.2-2.6-1.3-2.6-3.3V0l-38.6,9.9
		v4.6l11,3.5c1.8,0.7,2.4,2,2.4,3.7v129.5c0,2.4-2,4.2-4.8,4.2l-10.8,0.2v7.7H376.6z M475.3,67.4h-34V74l8.8,1.8
		c3.1,0.7,4.2,3.1,2.2,7.9L432.8,135c-0.9,2-2,2-2.6,0l-19.8-51.4c-1.8-5-0.9-7.2,2.2-7.9l8.8-1.8v-6.6h-49.6v6.8l4.8,1.1
		c3.3,0.7,5.3,2.4,6.6,5.5l33.6,82.5h15.1l33.6-82.5c1.8-4.4,3.7-6.1,7.2-6.1h2.6V67.4z M562.5,83.2c2.2-5,5-7.2,9.7-8.1l4.8-0.9
		v-6.8h-37.5V74l8.8,1.8c3.1,0.7,4,3.1,2,7.9L530,132.3c-0.9,2-2,2-2.6,0l-18.9-48.7c-2-5-0.9-7.2,2.2-7.9l8.8-1.8v-6.6h-48.1v7.2
		h2.6c2.9,0,5,1.1,6.8,5.3l35.1,85.6l-9.4,22.4c-6.1,14.9-10.8,17.6-16.5,17.6c-2.4,0-5-0.4-7.7-0.4c-6.8,0-11,4.8-11,10.1
		c0,5.9,4.8,10.1,12.5,10.1c11,0,21.7-8.8,30.7-29.8L562.5,83.2z"/>
</g>
</svg>
