<?xml version="1.0" encoding="utf-8"?>
<!-- Generator: Adobe Illustrator 19.2.1, SVG Export Plug-In . SVG Version: 6.00 Build 0)  -->
<svg version="1.1" id="layer" xmlns="http://www.w3.org/2000/svg" xmlns:xlink="http://www.w3.org/1999/xlink" x="0px" y="0px"
	 viewBox="0 0 652 652" style="enable-background:new 0 0 652 652;" xml:space="preserve">
<path fill="#a5a7a6"  d="M104.9,212.1C59,212.1,20,244.9,20,295.4c0,45.4,34.7,81.4,84.4,81.4c45.9,0,84.9-32.8,84.9-83.3
	C189.4,248.2,154.7,212.1,104.9,212.1z M104.9,367.1c-29.9,0-51.3-30.6-51.3-72.8c0-40.4,20.3-72.3,50.9-72.3
	c29.9,0,51.3,30.6,51.3,72.8C155.8,335.1,135.5,367.1,104.9,367.1z M581,274.6v6.9l9.2,1.8c3.2,0.7,4.1,3.2,2.1,8.2l-21.1,50.7
	c-0.9,2.1-2.1,2.1-2.7,0l-19.6-50.7c-2.1-5.2-0.9-7.5,2.3-8.2l9.1-1.8v-6.9h-81.3v6.9l9.2,1.8c3.2,0.7,4.4,3.2,2.3,8.2l-20.3,53.4
	c-0.9,2.1-2.1,2.1-2.7,0l-20.6-53.4c-1.8-5.2-0.9-7.5,2.3-8.2l9.1-1.8v-6.9h-51.6v7l5.1,1.1c3.4,0.7,5.5,2.5,6.9,5.7l34.9,85.8h15.8
	l34.9-85.8c1.8-4.5,3.9-6.4,7.5-6.4h1.4c3,0,5.2,1.1,7.1,5.5l36.5,89.1l-9.8,23.3c-6.4,15.5-11.1,18.3-17.1,18.3
	c-2.5,0-5.2-0.4-8-0.4c-7.1,0-11.4,5.1-11.4,10.5c0,6.2,5.1,10.5,13,10.5c11.4,0,22.6-9.2,32-31L605,291.1c2.3-5.2,5.2-7.5,10-8.5
	l5-0.9v-7.1H581z M261,365.4l-38.1,4.8c-12.5,1.6-16.5-2.5-16.5-8.9c0-7.5,8.2-13.5,36.8-13.5h0.4c20.7,0,45.2-12.5,45.2-39.7
	c0-8.7-3.2-16.6-9.2-23.1c-2.1-4.4-3-9.3-2.7-14.1c0-20.1,13.7-31.5,27.9-31.5c5.9,0,7.8,0.9,7.8,5.1c0,1.1-0.3,2.1-0.3,3.4
	c0,7.1,5.9,13.7,14.4,13.7c8.7,0,14.1-6.9,14.1-14.4c0-11.4-10.3-19.9-29.2-19.9c-26.1,0-46.1,16.9-46.1,42.7c0,2.1,0.3,3.7,0.3,5.2
	c-6.7-2.8-14-4.2-21.3-4.1c-20.6,0-45.2,12.5-45.2,39.7c0,12.5,7.1,24.2,19.4,31c-18.3,2.5-28.7,12.3-28.7,27.6
	c0,15.5,12.3,26.7,35.4,24l33.3-4.1c16.6-2.1,22.1,3.9,22.1,12.5c0,15.1-14.1,27.2-36.8,27.2c-18,0-24.7-6.4-24.7-15.5l0.3-4.5
	c0-5.5-3.4-9.3-8.9-9.6c-6.4,0-10.3,4.5-10.3,11.1c0,15.1,14.4,28.5,43.8,28.5c33.1,0,54.1-21.4,54.1-46.1
	C298.4,373.4,282.7,362.7,261,365.4L261,365.4z M243.9,279.4c10.7,0,19.4,12.1,19.4,30.6c0,15.9-7.3,29.7-18.7,29.7
	c-11,0-19.6-12.1-19.6-30.6C224.9,293.3,232.2,279.4,243.9,279.4L243.9,279.4z"/>
<path fill="#a5a7a6" d="M397.7,362.5v-158l-40.2,10.3v4.8l11.4,3.7c1.8,0.7,2.5,2.1,2.5,3.9v134.7c0,2.5-2.1,4.4-5.1,4.4l-10.2,0.2
	l-10.8-0.2c-3,0-5.1-1.8-5.1-4.4v-91.1L300.1,281v4.8l11.4,3.7c1.8,0.7,2.5,2.1,2.5,3.9v69.2c0,2.1-1.1,3.2-2.7,3.4l-9.3,1.1v7.3
	h109.5v-7.3l-11.1-1.1C398.9,365.7,397.7,364.6,397.7,362.5L397.7,362.5z"/>
</svg>
