<svg xmlns="http://www.w3.org/2000/svg" data-name="Layer 1" viewBox="0 0 128 128">
    <path fill="#a5a7a6" d="M4.14,63.45a4,4,0,0,0-4,4V72a4,4,0,0,0,4,4h.34a8.21,8.21,0,0,0,3.07-.89c8.69-2.74,11.33-5.28,12.06-6.25l.18-.25c2.81-4.38,1.67-8.28.32-10.29.45,0,.9.05,1.34.05s1.11,0,1.66-.06A5.36,5.36,0,0,0,23.39,63a7.38,7.38,0,0,0,.4,3.31,6.11,6.11,0,0,0,6.42,5.22A17.73,17.73,0,0,0,37,69.73c.84,0,1.9.06,2.82.06,2,0,3.71,0,5-1.15l.38-.23.84.71a4,4,0,0,0,.75.5A11.35,11.35,0,0,0,52,70.73l1,0c1.48-.08,5.75-.32,6.41-3.61a4,4,0,0,0,.21-7.42A9.48,9.48,0,0,1,57,57.15a17.64,17.64,0,0,0-3.88-4.91c-.42-1.11-1.23-3.84-1.89-6.21-.25-5.91-4.27-10.11-6.2-11.81C39.79,22,26.61,14.69,25.24,14a14.66,14.66,0,0,0-7.48-2,21.22,21.22,0,0,0-9.92,2.68,4,4,0,0,0-.47.33,30.61,30.61,0,0,1-4.62,2A4,4,0,0,0,.14,20.74V58.16a4,4,0,0,0,1.35,3,23.4,23.4,0,0,0,3.13,2.31H4.5Zm3.69-2.74a19.47,19.47,0,0,1-3.69-2.54V20.74a28.85,28.85,0,0,0,5.73-2.62A17.41,17.41,0,0,1,17.76,16a10.72,10.72,0,0,1,5.53,1.45s13.83,7.24,18.36,19.22c0,0,5.54,4.07,5.54,9.95,0,0,2.11,7.76,2.64,8.06,0,0,3.25,3.09,3.55,4.37,0,0,2.19,3.24,4.61,4.29a5.53,5.53,0,0,1-1.68.23,7,7,0,0,1-5.65-3,18.72,18.72,0,0,0-1.29-2c-.26-.34-.48-.5-.64-.5-.35,0-.45.69-.1,1.73.4,1.21.69,2.46.38,2.84,0,0,4.61,3.47,5.89,3.54l.53,0c.29,0-.88.45-2.68.54a8.09,8.09,0,0,1-4.12-.66l-1.47-1.24a3,3,0,0,0-3.24-.27,11.73,11.73,0,0,0-1.71,1.07,7.68,7.68,0,0,1-2.39.18c-1.47,0-3.16-.06-3.65-.11,0,0-3.46,1.84-6,1.84-1.36,0-2.43-.54-2.51-2.21a3.51,3.51,0,0,1-.31-2c.2-1.12.77-1.77.31-2L26.87,61s-1-1.21,1.81-3.54c.89-.74,2.54-2.28,2.08-3.68-.24-.74-1.22-.67-1.83-.6a11.61,11.61,0,0,0-1.38.26c-.43.1-.88.41-1.29.48a37.3,37.3,0,0,1-4.82.44,3.64,3.64,0,0,1-2.23-.44,14.2,14.2,0,0,0,1.58-4.45c.14-1-.09-1.47-.42-1.47s-.66.39-.92,1.19c-.69,2.12-2.1,4.73-4.61,4.73h-.09l-.6.08c-.33,0,0,1.4.84,3l1.58,3.23s2.27,2.41-.15,6.18c0,0-1.71,2.26-10.47,5a4.06,4.06,0,0,1-1.8.59V67.45c.2,0,.48,0,.82,0,1.41,0,3.76-.31,4.84-2.26C9.8,65.23,10.93,61.84,7.83,60.71Z"/>
    <path fill="#a5a7a6" d="M19.73 30c.59.09 2.51.64 2.24 3.85A2 2 0 0 0 23.8 36H24a2 2 0 0 0 2-1.84c.5-6.07-4-7.94-5.73-8.15A2 2 0 0 0 18 27.73 2 2 0 0 0 19.73 30zM33.71 46.34a2.47 2.47 0 0 0 1.31-.2l.36-.12A21.18 21.18 0 0 1 36 50.09 2 2 0 0 0 38 52h.09A2 2 0 0 0 40 49.91a25.28 25.28 0 0 0-.93-5.55 2 2 0 0 0-.25-.53c-.67-1-2.24-2.55-5.21-1.43h0a2 2 0 0 0 .1 3.94zM35 62c5.35.37 6-1.77 6-3a1.12 1.12 0 0 0-.64-.9C36.14 57.4 35 62 35 62zM127.86 58.16V20.74A4 4 0 0 0 125.25 17c-.76-.28-1.83-.6-3-.93s-3.07-.91-3.73-1.21A15.34 15.34 0 0 0 109.84 12a13.92 13.92 0 0 0-7.09 2c-1.37.73-14.55 8-19.74 20.27-1.94 1.69-6 5.9-6.2 11.81-.66 2.37-1.47 5.1-1.89 6.21a17.66 17.66 0 0 0-3.87 4.91 9.35 9.35 0 0 1-2.65 2.53 4 4 0 0 0 .21 7.42c.51 2.53 3.18 3.28 5.4 3.54a12.68 12.68 0 0 0 7.18-1 4 4 0 0 0 .75-.5l.84-.71.37.22c1.29 1.16 3 1.16 5 1.16.92 0 2 0 2.82-.06a17.73 17.73 0 0 0 6.78 1.79 6.11 6.11 0 0 0 6.42-5.22 7.38 7.38 0 0 0 .4-3.31 5.36 5.36 0 0 0 .28-4.69c.56 0 1.12.06 1.66.06s.89 0 1.34-.05c-1.35 2-2.49 5.91.32 10.29l.18.25c.74 1 3.38 3.51 12.06 6.25a8.21 8.21 0 0 0 3.07.89h.34a4 4 0 0 0 4-4V67.45a4 4 0 0 0-4-4l-.36 0h-.12a23.41 23.41 0 0 0 3.13-2.31A4 4 0 0 0 127.86 58.16zm-4-17.46V58.16a19.47 19.47 0 0 1-3.69 2.54c-3.1 1.13-2 4.52-2 4.52 1.08 1.94 3.44 2.26 4.84 2.26.34 0 .62 0 .82 0V72a4.06 4.06 0 0 1-1.8-.59c-8.76-2.71-10.47-5-10.47-5-2.42-3.77-.15-6.18-.15-6.18L113 57c.8-1.63 1.17-3 .84-3l-.6-.08h-.09c-2.51 0-3.92-2.61-4.61-4.73-.26-.8-.63-1.19-.92-1.19s-.56.51-.42 1.47a14.2 14.2 0 0 0 1.58 4.45 3.64 3.64 0 0 1-2.23.44 37.3 37.3 0 0 1-4.82-.44 7.75 7.75 0 0 0-2.56-.72 4.29 4.29 0 0 0-.64-.05c-.54 0-1.14.13-1.3.64-.45 1.4 1.2 2.94 2.08 3.68 2.8 2.34 1.81 3.54 1.81 3.54l-.83.34c-.46.19.11.84.31 2a3.51 3.51 0 0 1-.31 2c-.08 1.67-1.15 2.21-2.51 2.21-2.5 0-6-1.84-6-1.84-.5 0-2.19.11-3.65.11a7.68 7.68 0 0 1-2.39-.18 11.73 11.73 0 0 0-1.71-1.07 3 3 0 0 0-3.24.27l-1.47 1.24a7.54 7.54 0 0 1-3.39.68l-.73 0c-1.79-.1-3-.52-2.68-.54l.53 0c1.28-.07 5.89-3.54 5.89-3.54-.32-.39 0-1.63.38-2.84.35-1 .25-1.73-.1-1.73-.17 0-.39.15-.64.5a18.72 18.72 0 0 0-1.29 2 7 7 0 0 1-5.65 3A5.53 5.53 0 0 1 70 63.34C72.42 62.29 74.61 59 74.61 59c.3-1.28 3.55-4.37 3.55-4.37.53-.3 2.64-8.06 2.64-8.06 0-5.88 5.54-9.95 5.54-9.95 4.53-12 18.36-19.22 18.36-19.22A10 10 0 0 1 109.84 16a11.31 11.31 0 0 1 6.42 2.13c.92.76 5.75 1.93 7.59 2.62z"/>
    <path fill="#a5a7a6" d="M107.77 26c-1.76.21-6.23 2.08-5.73 8.15A2 2 0 0 0 104 36h.17A2 2 0 0 0 106 33.84c-.26-3.2 1.64-3.76 2.24-3.85a2 2 0 0 0-.5-4zM94.4 42.4h0c-3-1.11-4.54.42-5.21 1.43a2 2 0 0 0-.25.53A25.28 25.28 0 0 0 88 49.91 2 2 0 0 0 89.91 52H90a2 2 0 0 0 2-1.91A21.2 21.2 0 0 1 92.63 46l.36.12a2.47 2.47 0 0 0 1.31.2 2 2 0 0 0 .1-3.94zM87.64 58.07A1.12 1.12 0 0 0 87 59c0 1.22.65 3.36 6 3C93 62 91.86 57.4 87.64 58.07zM79.16 113.68H76.6v-4.42h1.53a2.49 2.49 0 0 0 .16-4.94c-.37 0-.74 0-1.12 0l-1.81 0a1.71 1.71 0 0 0-.08.31q0 7.28 0 14.57c0 .47.22.52.55.52h3.34a3 3 0 0 0 0-6z"/>
    <path fill="#a5a7a6" d="M128 98a4 4 0 0 0-4-4h-1.93c-.41 0-.73 0-1 0h-.4a4.67 4.67 0 0 0-2.71.85 6.13 6.13 0 0 0-3.4-.85H112a4 4 0 0 0-4 4v6.61a4 4 0 0 0-2-.55h-4.49a4 4 0 0 0-2.47.85 4 4 0 0 0-2.52-.9H94.27c-.46 0-.92 0-1.38 0h-.24a4.55 4.55 0 0 0-3.33 1.33c-.1.1-.17.21-.25.32a11.29 11.29 0 0 0-.53-2.75 9 9 0 0 0-8.24-6.62c-2.29-.14-4.59-.19-6.82-.23L71.1 96H71a4 4 0 0 0-4 4v24a4 4 0 0 0 3.71 4l.42 0L75 128c1.81 0 3.63 0 5.44 0a10.49 10.49 0 0 0 8-3.91 9.83 9.83 0 0 0 .9-1.28 9.34 9.34 0 0 0 1.6 2A11.39 11.39 0 0 0 98.84 128a12.71 12.71 0 0 0 4.82-1 10 10 0 0 0 4.34-3.27V124a4 4 0 0 0 4 4h1.93c.4 0 .73 0 1 0h.4a4.7 4.7 0 0 0 2.64-.78 4.22 4.22 0 0 0 2.27.76c.73 0 1.48 0 2.23 0H124a4 4 0 0 0 4-4zM85.42 121.45a6.51 6.51 0 0 1-5 2.5c-3.09 0-6.18 0-9.27.06H71V100c3.06.08 6.07.1 9.06.28a5 5 0 0 1 4.67 3.85 6.52 6.52 0 0 1-1.09 6.22l-.31.41s0 0 0 .15c.17.11.35.24.55.35C87.79 113.42 87.7 118.76 85.42 121.45zM106 109v8c0 3.21-1.12 5.19-3.86 6.31a8.72 8.72 0 0 1-3.3.7 7.35 7.35 0 0 1-5.13-2.18 5.42 5.42 0 0 1-1.7-4.18q0-4.39 0-8.79c0-.59.11-.85.65-.85h.08c.51 0 1 0 1.54 0h2.25c0 .34 0 .62 0 .89q0 3.89 0 7.78A2.57 2.57 0 0 0 99 119.54h0a2.55 2.55 0 0 0 2.45-2.82c0-2.54 0-5.08 0-7.62 0-.31 0-.61 0-1H106zm9.34 15h-.12c-.43 0-.85 0-1.28 0L112 124V98h2.54C116 98 116 98 116 99.77q0 11.6 0 23.21C116 123.69 115.89 124 115.34 124zm8.66 0h-1.52c-.72 0-1.43 0-2.14 0-.11 0-.24-.26-.31-.44a1.41 1.41 0 0 1 0-.46q0-12 0-24.07c0-.71.11-1 .65-1h.12c.43 0 .86 0 1.29 0L124 98zM32.13 111.44h-.05a2.6 2.6 0 0 0-2.44 2.72h5A2.61 2.61 0 0 0 32.13 111.44zM51.15 119.72h0a3.89 3.89 0 0 0 0-7.68h0a3.89 3.89 0 0 0 0 7.68z"/>
    <path fill="#a5a7a6" d="M39.48 125.29a11.48 11.48 0 0 0 1.82-2A10.48 10.48 0 0 0 49.87 128a9.89 9.89 0 0 0 3.52-.65 4 4 0 0 0 1.06.14H59a4 4 0 0 0 4-4V98a4 4 0 0 0-4-4H54.36a4 4 0 0 0-4 4v6h-.41a10.16 10.16 0 0 0-4.27 1 11 11 0 0 0-4.56 4 10.42 10.42 0 0 0-6.34-4.59 10.59 10.59 0 0 0-2.56-.32C26 104 21 109.28 21 115.78a14.69 14.69 0 0 0 .26 2.71l-2-3.14-.07-.12a11.37 11.37 0 0 0 3.21-10.12A10.71 10.71 0 0 0 12 96H4.9C3.43 96 0 96.49 0 101v21.87a4.61 4.61 0 0 0 .35 2.21 4.43 4.43 0 0 0 4 2.86c.82 0 1.67 0 2.53 0H8.75a4 4 0 0 0 2.92-1.26 5.16 5.16 0 0 0 .74.54 5.82 5.82 0 0 0 3.06.78c.29 0 .59 0 .89 0l.37 0H20a4 4 0 0 0 4-3.78 11.38 11.38 0 0 0 3.08 2.44A11 11 0 0 0 32.33 128 11.31 11.31 0 0 0 39.48 125.29zm7.87-16.73a6.17 6.17 0 0 1 2.6-.6 6.24 6.24 0 0 1 3.91 1.49l.51.41V98H59v25.49H54.45c0-.44 0-.84-.07-1.33a1.84 1.84 0 0 0-.34.18A6.23 6.23 0 0 1 49.87 124c-2.62 0-5.16-1.77-6.32-4.92C42 115 43.73 110.21 47.34 108.55zM18.06 124H16.74c-.41 0-.85.05-1.26.05a2 2 0 0 1-1-.22c-.6-.36-.9-1.34-1.32-2.05-1-1.68-2-3.35-3-5.05a2.84 2.84 0 0 1-.34-1.25c0-1.43 0-2.86 0-4.29 0-.24 0-.49 0-.81h.77l.43 0a2.9 2.9 0 0 0 2.69-2 2.79 2.79 0 0 0-.61-3.16 5 5 0 0 0-2-1 2 2 0 0 0-.57-.07l-.76 0H9.33c-.47 0-.59.27-.59.86 0 5.95 0 11.89 0 17.84v1.08H6.87c-.83 0-1.65 0-2.46 0-.13 0-.3-.27-.38-.45A1.4 1.4 0 0 1 4 123q0-11 0-22c0-1 0-1 .89-1H12a6.74 6.74 0 0 1 6.45 5.79 7.2 7.2 0 0 1-4.11 7.94l-.67.3L20 124zM25 115.78A7.55 7.55 0 0 1 32.21 108a6.58 6.58 0 0 1 1.59.2c3.87 1 5.62 4.77 5.11 8.87H29.64a2.77 2.77 0 0 0 1.79 2.74 2.86 2.86 0 0 0 1 .21 3.36 3.36 0 0 0 2.66-1.77l1.74.86 1.88 1a16.45 16.45 0 0 1-1.81 2.09A7.28 7.28 0 0 1 32.33 124a7 7 0 0 1-3.37-.91C26.29 121.65 25 119.08 25 115.78zM48.31 31.86c2.47 2.36 6.38 7.06 6.84 13.51.47 1.67 1 3.54 1.4 4.69a21.48 21.48 0 0 1 3.83 5 7.82 7.82 0 0 0 1 1.07 8 8 0 0 1 2.59 2 8 8 0 0 1 2.59-2 7.82 7.82 0 0 0 1-1.07 21.47 21.47 0 0 1 3.83-5c.36-1.11.9-2.91 1.4-4.69.46-6.44 4.37-11.15 6.84-13.51 3.91-8.61 11.11-14.77 16.08-18.26a43.89 43.89 0 0 0-63.54 0C37.21 17.09 44.4 23.26 48.31 31.86zM90.23 73.76l-2 0a14.87 14.87 0 0 1-5.12-.63l0 0a15.29 15.29 0 0 1-7 1.56c-.4 0-.79 0-1.17 0-5.73-.32-8.3-2.59-9.43-4.83A8 8 0 0 1 64 68.63a8 8 0 0 1-1.37 1.24c-1.13 2.24-3.7 4.51-9.43 4.83-.38 0-.78 0-1.18 0a15.29 15.29 0 0 1-7-1.56l-.05 0a14.83 14.83 0 0 1-5.11.64l-2 0A24.3 24.3 0 0 1 33 75.22a43.91 43.91 0 0 0 61.93 0A24.3 24.3 0 0 1 90.23 73.76z"/>
</svg>
