<?xml version="1.0" encoding="UTF-8"?>
<svg width="31px" height="24px" viewBox="0 0 31 24" version="1.1" xmlns="http://www.w3.org/2000/svg" xmlns:xlink="http://www.w3.org/1999/xlink">
    <!-- Generator: sketchtool 53.2 (72643) - https://sketchapp.com -->
    <title>027E8145-690F-44AE-B8C9-7AEFCEE5180A</title>
    <desc>Created with sketchtool.</desc>
    <g id="Main-screen" stroke="none" stroke-width="1" fill="none" fill-rule="evenodd">
        <g id="Legal" transform="translate(-135.000000, -20.000000)" fill="#868E96">
            <g id="Navbar-">
                <g id="flow-isotype-mono" transform="translate(135.000000, 20.000000)">
                    <g id="flow-logo-mono">
                        <path d="M10.216,0.055 C10.6181496,0.0167169536 11.0220629,2.63241468e-05 11.426,0.005 C17.666,0.005 22.676,5.125 22.723,11.565 C22.681,13.558 21.339,15.143 19.513,15.143 C17.669,15.143 16.073,13.819 16.073,11.563 C16.073,8.98 13.879,6.94 11.243,6.94 C8.61,6.94 6.713,9.152 6.678,11.804 C6.678,16.449 9.308,20.817 12.978,22.764 C13.291,22.964 13.413,22.984 13.698,23.146 C12.881,23.376 11.94,23.456 11.424,23.456 C5.134,23.456 0.034,18.281 0.034,11.803 C0.034,5.793 4.454,0.685 10.214,0.055 L10.216,0.055 Z" id="Path"></path>
                        <path d="M17.064,0.252 C21.324,1.927 24.13,6.846 24.167,11.8 C24.11,14.566 21.88,16.568 19.517,16.568 C17.157,16.568 14.709,14.868 14.709,11.798 C14.709,9.75 13.171,8.358 11.249,8.358 C9.439,8.358 8.059,9.852 8.059,11.798 C8.059,13.488 8.383,14.441 8.546,15.138 C8.706,15.836 9.348,17.136 9.363,17.168 C9.423,17.291 10.033,18.425 10.809,19.372 C11.3189578,19.9765349 11.8873843,20.5292182 12.506,21.022 C12.569,21.072 13.066,21.452 13.256,21.582 C13.326,21.63 14.556,22.422 15.77,22.818 C16.986,23.212 18.01,23.442 19.36,23.442 C25.633,23.442 30.783,18.277 30.783,11.8 C30.785,5.322 25.79,0.014 19.423,0.014 C18.745,0.014 17.71,0.134 17.063,0.252 L17.064,0.252 Z" id="Path"></path>
                    </g>
                </g>
            </g>
        </g>
    </g>
</svg>